<?xml version="1.0" encoding="UTF-8" standalone="no"?><svg xmlns="http://www.w3.org/2000/svg" xmlns:xlink="http://www.w3.org/1999/xlink" fill="#ffde59" height="55.7" preserveAspectRatio="xMidYMid meet" version="1" viewBox="-0.2 -0.0 55.6 55.7" width="55.6" zoomAndPan="magnify"><g data-name="41" id="change1_1"><path d="M23.084,35.676a27.588,27.588,0,0,1-15.91-7.75,27.676,27.676,0,0,1,15.92-7.75,8.429,8.429,0,0,0-.01,15.5Zm8.74-7.74a5.425,5.425,0,1,0-5.42,5.42A5.427,5.427,0,0,0,31.824,27.936ZM54.893,43.56c-1.09-1.11-2.19-2.22-3.31-3.29a2.616,2.616,0,0,0-.82-.43,1.544,1.544,0,0,0-1.571.88,1.446,1.446,0,0,0,.281,1.68c.77.79,1.56,1.56,2.34,2.34.31.31.609.63.93.93a1.506,1.506,0,0,0,2.15-2.11Zm-.06-33.55a1.491,1.491,0,0,0-2.09.02c-.321.3-.62.61-.93.92-.78.78-1.57,1.55-2.34,2.35a1.441,1.441,0,0,0-.281,1.68,1.558,1.558,0,0,0,1.571.88,3.126,3.126,0,0,0,.82-.43q1.68-1.62,3.31-3.3A1.483,1.483,0,0,0,54.833,10.01ZM27.822,0a1.478,1.478,0,0,0-1.5,1.49c-.009.76,0,1.51,0,2.27h-.009V6.03a1.505,1.505,0,1,0,3.009.04c.021-1.53.021-3.05,0-4.58A1.476,1.476,0,0,0,27.822,0ZM5.893,12.51c-1.1-1.15-2.23-2.27-3.36-3.38a1.483,1.483,0,0,0-2.06.04,1.456,1.456,0,0,0-.12,2.02c1.129,1.18,2.29,2.33,3.46,3.46a1.342,1.342,0,0,0,1.569.21,1.7,1.7,0,0,0,.98-1.41A3.446,3.446,0,0,0,5.893,12.51ZM5.382,40.84a1.34,1.34,0,0,0-1.569.2c-1.17,1.13-2.331,2.29-3.46,3.47a1.443,1.443,0,0,0,.12,2.01,1.483,1.483,0,0,0,2.06.05c1.13-1.11,2.26-2.23,3.36-3.38a3.757,3.757,0,0,0,.469-.94A1.685,1.685,0,0,0,5.382,40.84ZM27.843,48.1a1.514,1.514,0,0,0-1.53,1.57v2.27h.009c0,.75-.009,1.51,0,2.26a1.492,1.492,0,0,0,1.5,1.5,1.476,1.476,0,0,0,1.5-1.49c.021-1.53.021-3.06,0-4.58A1.5,1.5,0,0,0,27.843,48.1Zm6.981-20.164a8.424,8.424,0,0,1-5.06,7.72,27.593,27.593,0,0,0,15.62-7.73,27.532,27.532,0,0,0-15.63-7.72A8.435,8.435,0,0,1,34.824,27.936Z"/></g></svg>