<?xml version="1.0" encoding="UTF-8"?><svg xmlns="http://www.w3.org/2000/svg" xmlns:xlink="http://www.w3.org/1999/xlink" height="482.5" preserveAspectRatio="xMidYMid meet" version="1.0" viewBox="-1.6 -0.6 694.4 482.5" width="694.4" zoomAndPan="magnify"><defs><clipPath id="a"><path d="M 249 246 L 692.820312 246 L 692.820312 481.910156 L 249 481.910156 Z M 249 246"/></clipPath></defs><g><g><path d="M 442.632812 244.378906 L 419.878906 170.460938 L 419.824219 170.566406 C 419.691406 169.960938 419.316406 169.40625 418.683594 169.117188 L 343.570312 134.523438 C 338.851562 132.351562 333.550781 132.117188 328.679688 133.863281 L 30.316406 240.847656 C 29.265625 241.226562 25.832031 241.027344 25.53125 241.976562 L 0.371094 311.839844 C 0.371094 311.839844 -1.617188 315.484375 3.601562 317.859375 L 108.058594 365.109375 L 108.191406 365.214844 L 108.21875 365.234375 C 108.90625 365.753906 112.050781 367.839844 117.675781 367.761719 C 120.214844 367.730469 123.238281 367.265625 126.789062 365.992188 L 439.597656 253.828125 C 439.597656 253.828125 444.382812 249.722656 442.632812 244.378906" fill="#9b5e02"/></g><g><path d="M 417.207031 168.175781 L 116.75 275.910156 L 125.46875 361.105469 L 438.277344 248.941406 L 417.207031 168.175781" fill="#a16800"/></g><g><path d="M 100.550781 275.480469 L 29.03125 242.546875 L 5.03125 313.992188 L 106.738281 360.222656 L 100.550781 275.480469" fill="#fab300"/></g><g><path d="M 440.367188 243.335938 C 440.367188 243.335938 420.808594 172.128906 419.808594 169.457031 C 418.808594 166.785156 416.308594 163.847656 411.058594 161.441406 L 342.25 129.640625 C 337.53125 127.46875 332.230469 127.230469 327.359375 128.976562 L 28.996094 235.960938 C 27.941406 236.339844 27.261719 237.164062 26.964844 238.109375 L 26.789062 237.738281 L 1.804688 307.976562 C 1.804688 307.976562 -0.183594 311.621094 5.03125 313.992188 L 26.453125 250.226562 C 27.847656 246.0625 32.242188 244.023438 36.042969 245.773438 C 49.03125 251.757812 76.824219 264.554688 91.183594 271.167969 C 96.726562 273.722656 100.492188 279.332031 100.988281 285.765625 L 106.738281 360.222656 C 106.738281 360.222656 112.949219 365.59375 125.46875 361.105469 L 118.117188 287.058594 C 117.46875 280.492188 121.171875 274.324219 127.027344 272.222656 L 410.128906 170.710938 C 413.976562 169.332031 418.121094 171.683594 419.214844 175.859375 L 438.277344 248.941406 C 438.277344 248.941406 441.269531 246.808594 440.367188 243.335938" fill="#f6f4df"/></g><g><path d="M 29.777344 235.988281 C 29.359375 236.140625 29.257812 236.484375 29.25 236.742188 C 29.238281 237.003906 29.3125 237.351562 29.714844 237.539062 L 101.46875 270.582031 C 103.90625 271.703125 106.484375 272.273438 109.140625 272.273438 C 111.238281 272.273438 113.3125 271.910156 115.300781 271.195312 L 348.105469 186.800781 L 120.535156 203.445312 L 29.777344 235.988281" fill="#fab300"/></g><g><path d="M 336.871094 131.566406 C 334.558594 130.5 332.105469 129.960938 329.585938 129.960938 C 327.59375 129.960938 325.625 130.304688 323.734375 130.980469 L 120.535156 203.445312 C 120.535156 203.445312 205.105469 218.058594 366.457031 181.503906 L 395.058594 167.585938 C 401.058594 164.914062 404.871094 162.882812 401.671875 161.40625 L 336.871094 131.566406" fill="#ffd34b"/></g><g><path d="M 101.46875 270.582031 L 29.714844 237.539062 C 29.3125 237.351562 29.238281 237.003906 29.25 236.742188 C 29.257812 236.480469 29.359375 236.140625 29.777344 235.988281 L 47.695312 229.566406 C 47.582031 229.503906 47.472656 229.441406 47.359375 229.378906 L 28.996094 235.960938 C 27.941406 236.339844 27.261719 237.164062 26.964844 238.109375 L 26.789062 237.738281 L 1.804688 307.976562 C 1.804688 307.976562 -0.183594 311.621094 5.03125 313.992188 L 26.453125 250.226562 C 27.851562 246.0625 32.242188 244.023438 36.042969 245.773438 C 49.03125 251.757812 76.824219 264.554688 91.183594 271.167969 C 96.730469 273.722656 100.492188 279.332031 100.988281 285.765625 L 106.738281 360.222656 C 106.738281 360.222656 109.945312 362.964844 116.355469 362.878906 L 110.855469 282.695312 C 110.855469 282.695312 110.535156 276.066406 101.46875 270.582031" fill="#ffd34b"/></g><g><path d="M 409.027344 163.339844 L 407.625 162.691406 L 116.386719 266.566406 C 114.394531 267.28125 112.320312 267.644531 110.222656 267.644531 C 107.570312 267.644531 104.988281 267.070312 102.550781 265.949219 L 34.121094 234.441406 L 29.777344 235.988281 C 29.359375 236.140625 29.257812 236.484375 29.25 236.742188 C 29.238281 237.003906 29.3125 237.351562 29.714844 237.539062 L 101.46875 270.582031 C 103.90625 271.703125 106.484375 272.273438 109.140625 272.273438 C 111.238281 272.273438 113.3125 271.910156 115.300781 271.195312 L 408.898438 166.484375 C 410.273438 165.996094 410.355469 163.953125 409.027344 163.339844" fill="#ffecc3"/></g><g><path d="M 146.246094 315.695312 C 120.246094 324.957031 124.578125 341.9375 124.578125 341.9375 L 125.429688 360.722656 L 438.277344 248.941406 L 438.015625 247.949219 C 384.574219 223.074219 361.464844 235.425781 361.464844 235.425781 C 361.464844 235.425781 172.246094 306.433594 146.246094 315.695312" fill="#703b00"/></g><g><path d="M 568.246094 301.464844 L 545.488281 227.546875 L 545.433594 227.652344 C 545.304688 227.046875 544.929688 226.496094 544.296875 226.203125 L 469.183594 191.613281 C 464.464844 189.441406 459.160156 189.203125 454.289062 190.949219 L 155.929688 297.933594 C 154.875 298.3125 151.441406 298.113281 151.144531 299.0625 L 125.984375 368.929688 C 125.984375 368.929688 123.996094 372.574219 129.210938 374.945312 L 233.671875 422.195312 L 233.804688 422.300781 L 233.832031 422.320312 C 234.519531 422.839844 237.664062 424.925781 243.285156 424.851562 L 243.289062 424.851562 C 245.824219 424.816406 248.851562 424.351562 252.402344 423.078125 L 565.210938 310.914062 C 565.210938 310.914062 569.996094 306.808594 568.246094 301.464844" fill="#9b5e02"/></g><g><path d="M 542.820312 225.261719 L 242.363281 332.996094 L 251.078125 418.191406 L 563.886719 306.027344 L 542.820312 225.261719" fill="#a16800"/></g><g><path d="M 226.160156 332.566406 L 154.640625 299.632812 L 130.644531 371.078125 L 232.347656 417.3125 L 226.160156 332.566406" fill="#fab300"/></g><g><path d="M 565.976562 300.421875 C 565.976562 300.421875 546.421875 229.214844 545.421875 226.542969 C 544.421875 223.871094 541.921875 220.933594 536.671875 218.527344 L 467.859375 186.726562 C 463.140625 184.554688 457.839844 184.316406 452.96875 186.0625 L 154.609375 293.046875 C 153.554688 293.425781 152.871094 294.25 152.574219 295.199219 L 152.402344 294.828125 L 127.414062 365.0625 C 127.414062 365.0625 125.425781 368.707031 130.644531 371.078125 L 152.0625 307.3125 C 153.460938 303.152344 157.855469 301.113281 161.652344 302.863281 C 174.644531 308.84375 202.4375 321.644531 216.796875 328.253906 C 222.339844 330.808594 226.105469 336.417969 226.601562 342.851562 L 232.347656 417.3125 C 232.347656 417.3125 238.5625 422.683594 251.078125 418.191406 L 243.730469 344.144531 C 243.078125 337.578125 246.78125 331.410156 252.640625 329.3125 L 535.738281 227.800781 C 539.589844 226.417969 543.734375 228.769531 544.824219 232.949219 L 563.886719 306.027344 C 563.886719 306.027344 566.882812 303.894531 565.976562 300.421875" fill="#ffecc3"/></g><g><path d="M 155.390625 293.078125 C 154.96875 293.226562 154.871094 293.570312 154.859375 293.828125 C 154.847656 294.089844 154.921875 294.441406 155.328125 294.628906 L 227.078125 327.667969 C 229.515625 328.789062 232.097656 329.359375 234.75 329.359375 C 236.847656 329.359375 238.921875 329 240.914062 328.285156 L 473.714844 243.886719 L 246.148438 260.53125 L 155.390625 293.078125" fill="#c8871d"/></g><g><path d="M 462.480469 188.652344 C 460.167969 187.585938 457.71875 187.046875 455.199219 187.046875 C 453.203125 187.046875 451.234375 187.390625 449.34375 188.066406 L 246.148438 260.53125 C 246.148438 260.53125 330.71875 275.144531 492.070312 238.589844 L 520.671875 224.675781 C 526.671875 222.003906 530.484375 219.96875 527.28125 218.492188 L 462.480469 188.652344" fill="#ffd34b"/></g><g><path d="M 227.078125 327.667969 L 155.328125 294.628906 C 154.921875 294.441406 154.847656 294.089844 154.859375 293.828125 C 154.871094 293.570312 154.96875 293.226562 155.390625 293.078125 L 173.304688 286.652344 C 173.191406 286.589844 173.082031 286.527344 172.972656 286.464844 L 154.609375 293.046875 C 153.554688 293.425781 152.871094 294.25 152.574219 295.199219 L 152.402344 294.828125 L 127.414062 365.0625 C 127.414062 365.0625 125.425781 368.707031 130.644531 371.078125 L 152.0625 307.3125 C 153.460938 303.152344 157.855469 301.113281 161.652344 302.859375 C 174.644531 308.84375 202.4375 321.640625 216.796875 328.253906 C 222.339844 330.808594 226.105469 336.417969 226.601562 342.851562 L 232.347656 417.3125 C 232.347656 417.3125 235.554688 420.050781 241.964844 419.964844 L 236.46875 339.78125 C 236.46875 339.78125 236.148438 333.15625 227.078125 327.667969" fill="#fadb67"/></g><g><path d="M 534.636719 220.425781 L 533.238281 219.78125 L 241.996094 323.652344 C 240.007812 324.367188 237.933594 324.730469 235.835938 324.730469 C 233.179688 324.730469 230.597656 324.160156 228.160156 323.039062 L 159.734375 291.527344 L 155.390625 293.078125 C 154.96875 293.226562 154.871094 293.570312 154.859375 293.828125 C 154.847656 294.089844 154.921875 294.441406 155.328125 294.628906 L 227.078125 327.667969 C 229.515625 328.789062 232.097656 329.359375 234.75 329.359375 C 236.847656 329.359375 238.921875 329 240.914062 328.285156 L 534.511719 223.570312 C 535.886719 223.085938 535.96875 221.039062 534.636719 220.425781" fill="#ffecc3"/></g><g><path d="M 271.855469 372.78125 C 245.855469 382.042969 250.191406 399.023438 250.191406 399.023438 L 251.039062 417.808594 L 563.886719 306.027344 L 563.628906 305.035156 C 510.1875 280.160156 487.074219 292.511719 487.074219 292.511719 C 487.074219 292.511719 297.855469 363.519531 271.855469 372.78125" fill="#703b00"/></g><g clip-path="url(#a)"><path d="M 692.4375 358.523438 L 669.683594 284.605469 L 669.628906 284.710938 C 669.496094 284.105469 669.121094 283.554688 668.488281 283.261719 L 593.375 248.671875 C 588.65625 246.496094 583.355469 246.261719 578.484375 248.007812 L 280.121094 354.992188 C 279.070312 355.371094 275.636719 355.171875 275.335938 356.121094 L 250.175781 425.984375 C 250.175781 425.984375 248.1875 429.632812 253.40625 432.003906 L 357.863281 479.253906 L 357.996094 479.359375 L 358.023438 479.378906 C 358.710938 479.898438 361.855469 481.984375 367.480469 481.90625 C 370.019531 481.875 373.042969 481.410156 376.59375 480.136719 L 689.402344 367.972656 C 689.402344 367.972656 694.1875 363.867188 692.4375 358.523438" fill="#9b5e02"/></g><g><path d="M 667.011719 282.320312 L 366.554688 390.054688 L 375.273438 475.25 L 688.082031 363.085938 L 667.011719 282.320312" fill="#ffd34b"/></g><g><path d="M 350.355469 389.625 L 278.835938 356.691406 L 254.835938 428.136719 L 356.542969 474.367188 L 350.355469 389.625" fill="#fab300"/></g><g><path d="M 690.171875 357.480469 C 690.171875 357.480469 670.613281 286.273438 669.613281 283.601562 C 668.613281 280.929688 666.113281 277.992188 660.863281 275.585938 L 592.054688 243.785156 C 587.335938 241.613281 582.035156 241.375 577.164062 243.121094 L 278.800781 350.105469 C 277.746094 350.484375 277.066406 351.308594 276.769531 352.257812 L 276.59375 351.886719 L 251.609375 422.121094 C 251.609375 422.121094 249.621094 425.765625 254.835938 428.136719 L 276.257812 364.371094 C 277.652344 360.210938 282.046875 358.171875 285.847656 359.921875 C 298.839844 365.902344 326.628906 378.699219 340.988281 385.3125 C 346.535156 387.867188 350.300781 393.476562 350.796875 399.910156 L 356.542969 474.367188 C 356.542969 474.367188 362.757812 479.738281 375.273438 475.25 L 367.921875 401.203125 C 367.273438 394.636719 370.976562 388.46875 376.832031 386.367188 L 659.933594 284.855469 C 663.78125 283.476562 667.929688 285.824219 669.019531 290.007812 L 688.082031 363.085938 C 688.082031 363.085938 691.074219 360.953125 690.171875 357.480469" fill="#ffecc3"/></g><g><path d="M 279.582031 350.136719 C 279.164062 350.285156 279.0625 350.628906 279.054688 350.886719 C 279.042969 351.148438 279.117188 351.496094 279.519531 351.6875 L 351.273438 384.726562 C 353.710938 385.847656 356.289062 386.417969 358.945312 386.417969 C 361.042969 386.417969 363.117188 386.058594 365.109375 385.34375 L 597.910156 300.945312 L 370.34375 317.589844 L 279.582031 350.136719" fill="#fab300"/></g><g><path d="M 586.675781 245.710938 C 584.363281 244.644531 581.910156 244.105469 579.390625 244.105469 C 577.398438 244.105469 575.429688 244.449219 573.539062 245.125 L 370.34375 317.589844 C 370.34375 317.589844 454.910156 332.203125 616.261719 295.648438 L 644.863281 281.730469 C 650.863281 279.058594 654.679688 277.027344 651.476562 275.550781 L 586.675781 245.710938" fill="#ffd34b"/></g><g><path d="M 351.273438 384.726562 L 279.519531 351.6875 C 279.117188 351.496094 279.042969 351.148438 279.054688 350.886719 C 279.0625 350.628906 279.164062 350.285156 279.582031 350.136719 L 297.496094 343.710938 C 297.386719 343.648438 297.277344 343.585938 297.164062 343.523438 L 278.800781 350.105469 C 277.746094 350.484375 277.066406 351.308594 276.769531 352.257812 L 276.59375 351.886719 L 251.609375 422.121094 C 251.609375 422.121094 249.621094 425.765625 254.835938 428.136719 L 276.257812 364.371094 C 277.652344 360.210938 282.046875 358.171875 285.847656 359.917969 C 298.839844 365.902344 326.628906 378.699219 340.988281 385.3125 C 346.535156 387.867188 350.300781 393.476562 350.796875 399.90625 L 356.542969 474.367188 C 356.542969 474.367188 359.75 477.109375 366.160156 477.023438 L 360.660156 396.839844 C 360.660156 396.839844 360.34375 390.214844 351.273438 384.726562" fill="#fadb67"/></g><g><path d="M 658.832031 277.484375 L 657.429688 276.839844 L 366.191406 380.710938 C 364.199219 381.425781 362.125 381.785156 360.027344 381.785156 C 357.375 381.785156 354.792969 381.21875 352.355469 380.097656 L 283.929688 348.585938 L 279.582031 350.136719 C 279.164062 350.285156 279.0625 350.628906 279.054688 350.886719 C 279.042969 351.148438 279.117188 351.496094 279.519531 351.6875 L 351.273438 384.726562 C 353.710938 385.847656 356.289062 386.417969 358.945312 386.417969 C 361.042969 386.417969 363.117188 386.058594 365.109375 385.34375 L 658.703125 280.628906 C 660.078125 280.140625 660.160156 278.097656 658.832031 277.484375" fill="#ffecc3"/></g><g><path d="M 396.050781 429.839844 C 370.050781 439.101562 374.386719 456.082031 374.386719 456.082031 L 375.234375 474.867188 L 688.082031 363.085938 L 687.820312 362.09375 C 634.382812 337.21875 611.269531 349.570312 611.269531 349.570312 C 611.269531 349.570312 422.050781 420.578125 396.050781 429.839844" fill="#fab300"/></g><g><path d="M 252.59375 329.328125 C 252.609375 329.320312 252.625 329.316406 252.640625 329.3125 L 258.027344 327.378906 L 252.59375 329.328125" fill="#985002"/></g><g><path d="M 284.820312 347.949219 L 248.691406 331.585938 C 249.839844 330.621094 251.152344 329.851562 252.59375 329.328125 L 258.027344 327.378906 L 295.242188 344.210938 L 284.820312 347.949219" fill="#9e5900"/></g><g><path d="M 248.691406 331.585938 L 241.1875 328.1875 L 251.601562 324.472656 L 258.027344 327.378906 L 252.640625 329.3125 C 252.625 329.316406 252.609375 329.320312 252.59375 329.328125 C 251.152344 329.851562 249.839844 330.621094 248.691406 331.585938" fill="#faca94"/></g><g><path d="M 159.621094 291.25 L 122.925781 274.632812 C 124.121094 273.597656 125.503906 272.773438 127.027344 272.222656 L 130.898438 270.835938 L 168.773438 287.96875 L 159.621094 291.25" fill="#9e5900"/></g><g><path d="M 122.925781 274.632812 L 115.324219 271.1875 L 124.46875 267.929688 L 130.898438 270.835938 L 127.027344 272.222656 C 125.503906 272.773438 124.121094 273.597656 122.925781 274.632812" fill="#f1d1a9"/></g><g><path d="M 110.222656 267.644531 C 109.054688 267.644531 107.898438 267.53125 106.765625 267.3125 L 55.855469 244.257812 L 75.582031 237.210938 L 74.300781 240.773438 C 74.300781 240.773438 72.355469 244.34375 77.460938 246.664062 L 119.222656 265.554688 L 116.386719 266.566406 C 114.394531 267.28125 112.320312 267.644531 110.222656 267.644531" fill="#f59900"/></g><g><path d="M 115.324219 271.1875 L 106.765625 267.3125 C 107.898438 267.53125 109.054688 267.644531 110.222656 267.644531 C 112.320312 267.644531 114.394531 267.28125 116.386719 266.566406 L 119.222656 265.554688 L 124.46875 267.929688 L 115.324219 271.1875" fill="#faca94"/></g><g><path d="M 159.621094 291.25 L 168.773438 287.96875 L 159.621094 291.25" fill="#faca94"/></g><g><path d="M 235.835938 324.730469 C 234.910156 324.730469 233.996094 324.660156 233.097656 324.523438 L 160.003906 291.421875 L 169.152344 288.140625 L 179.746094 292.933594 L 179.875 293.035156 L 179.902344 293.054688 C 180.5625 293.554688 183.546875 295.535156 188.871094 295.535156 C 188.96875 295.535156 189.0625 295.53125 189.160156 295.53125 L 189.164062 295.53125 C 190.546875 295.511719 192.078125 295.363281 193.765625 295.019531 C 193.574219 296.253906 193.855469 298.34375 197.246094 299.882812 L 246.355469 322.097656 L 241.996094 323.652344 C 240.007812 324.367188 237.933594 324.730469 235.835938 324.730469" fill="#c47316"/></g><g><path d="M 160.003906 291.421875 L 159.621094 291.25 L 168.773438 287.96875 L 169.152344 288.140625 L 160.003906 291.421875" fill="#f5bb4e"/></g><g><path d="M 241.1875 328.1875 L 233.097656 324.523438 C 233.996094 324.660156 234.910156 324.730469 235.835938 324.730469 C 237.933594 324.730469 240.007812 324.367188 241.996094 323.652344 L 246.355469 322.097656 L 251.601562 324.472656 L 241.1875 328.1875" fill="#faca94"/></g><g><path d="M 285.199219 348.121094 L 295.621094 344.382812 L 285.199219 348.121094 M 284.820312 347.949219 L 295.242188 344.210938 L 284.820312 347.949219 M 607.003906 255.070312 L 592.683594 248.476562 L 593.179688 248.300781 L 607.609375 254.851562 L 607.003906 255.070312" fill="#faca94"/></g><g><path d="M 312.683594 359.042969 C 307.394531 359.042969 304.433594 357.078125 303.777344 356.582031 L 303.75 356.5625 L 303.621094 356.460938 L 285.199219 348.121094 L 295.621094 344.382812 L 299.53125 346.152344 L 299.660156 346.253906 L 299.6875 346.273438 C 300.347656 346.773438 303.332031 348.753906 308.65625 348.753906 C 308.753906 348.753906 308.847656 348.753906 308.945312 348.75 L 308.949219 348.75 C 311.433594 348.71875 314.394531 348.265625 317.871094 347.015625 L 393.761719 319.804688 C 400.839844 320.191406 409.503906 320.476562 419.738281 320.476562 C 421.34375 320.476562 422.980469 320.46875 424.660156 320.453125 L 321.847656 357.320312 C 318.390625 358.558594 315.449219 359.011719 312.980469 359.042969 L 312.976562 359.042969 C 312.878906 359.042969 312.78125 359.042969 312.683594 359.042969" fill="#f59900"/></g><g><path d="M 419.738281 320.476562 C 409.503906 320.476562 400.839844 320.191406 393.761719 319.804688 L 592.683594 248.476562 L 607.003906 255.070312 L 424.660156 320.453125 C 422.980469 320.46875 421.34375 320.476562 419.738281 320.476562" fill="#fab439"/></g><g><path d="M 285.199219 348.121094 L 284.820312 347.949219 L 295.242188 344.210938 L 295.621094 344.382812 L 285.199219 348.121094" fill="#f5bb4e"/></g><g><path d="M 507.355469 174.714844 L 485.074219 102.335938 L 485.019531 102.441406 C 484.890625 101.847656 484.527344 101.304688 483.902344 101.019531 L 410.355469 67.148438 C 405.734375 65.023438 400.542969 64.789062 395.773438 66.5 L 103.621094 171.257812 C 102.589844 171.628906 99.226562 171.4375 98.9375 172.363281 L 74.300781 240.773438 C 74.300781 240.773438 72.355469 244.34375 77.460938 246.664062 L 179.746094 292.933594 L 179.875 293.035156 L 179.902344 293.054688 C 180.574219 293.5625 183.65625 295.605469 189.160156 295.53125 L 189.164062 295.53125 C 191.648438 295.5 194.609375 295.046875 198.089844 293.796875 L 504.382812 183.96875 C 504.382812 183.96875 509.070312 179.949219 507.355469 174.714844" fill="#9b5e02"/></g><g><path d="M 482.433594 100.15625 L 188.226562 205.648438 L 196.765625 289.074219 L 503.0625 179.242188 L 482.433594 100.15625" fill="#a16800"/></g><g><path d="M 172.363281 205.230469 L 102.335938 172.980469 L 78.835938 242.9375 L 178.425781 288.210938 L 172.363281 205.230469" fill="#fab300"/></g><g><path d="M 505.109375 173.753906 C 505.109375 173.753906 485.960938 104.027344 484.980469 101.414062 C 484 98.796875 481.554688 95.917969 476.410156 93.5625 L 409.035156 62.425781 C 404.414062 60.296875 399.222656 60.066406 394.453125 61.777344 L 102.300781 166.53125 C 101.269531 166.902344 100.601562 167.710938 100.3125 168.636719 L 100.140625 168.273438 L 75.675781 237.046875 C 75.675781 237.046875 73.726562 240.617188 78.835938 242.9375 L 99.808594 180.5 C 101.179688 176.425781 105.480469 174.429688 109.199219 176.140625 C 121.921875 182 149.136719 194.53125 163.195312 201.007812 C 168.625 203.507812 172.3125 209 172.796875 215.296875 L 178.425781 288.207031 C 178.425781 288.207031 184.507812 293.46875 196.765625 289.074219 L 189.570312 216.566406 C 188.929688 210.136719 192.558594 204.097656 198.292969 202.039062 L 475.5 102.640625 C 479.269531 101.289062 483.328125 103.589844 484.394531 107.683594 L 503.0625 179.242188 C 503.0625 179.242188 505.992188 177.15625 505.109375 173.753906" fill="#ffecc3"/></g><g><path d="M 103.066406 166.558594 C 102.65625 166.707031 102.558594 167.042969 102.550781 167.296875 C 102.539062 167.554688 102.609375 167.894531 103.007812 168.078125 L 173.265625 200.433594 C 175.652344 201.53125 178.179688 202.089844 180.777344 202.089844 C 182.832031 202.089844 184.863281 201.734375 186.8125 201.035156 L 414.765625 118.394531 L 191.9375 134.695312 L 103.066406 166.558594" fill="#fab300"/></g><g><path d="M 403.765625 64.308594 C 401.503906 63.265625 399.101562 62.738281 396.636719 62.738281 C 394.683594 62.738281 392.753906 63.074219 390.902344 63.738281 L 191.9375 134.695312 C 191.9375 134.695312 274.746094 149.003906 432.738281 113.207031 L 460.742188 99.582031 C 466.617188 96.964844 470.355469 94.976562 467.21875 93.53125 L 403.765625 64.308594" fill="#ffd34b"/></g><g><path d="M 173.265625 200.433594 L 103.007812 168.078125 C 102.609375 167.894531 102.539062 167.554688 102.550781 167.296875 C 102.558594 167.042969 102.65625 166.707031 103.066406 166.5625 L 120.609375 160.269531 C 120.5 160.207031 120.394531 160.148438 120.28125 160.085938 L 102.300781 166.53125 C 101.269531 166.902344 100.601562 167.710938 100.3125 168.636719 L 100.140625 168.273438 L 75.675781 237.046875 C 75.675781 237.046875 73.726562 240.617188 78.835938 242.9375 L 99.808594 180.5 C 101.179688 176.425781 105.480469 174.429688 109.199219 176.140625 C 121.921875 182 149.136719 194.53125 163.195312 201.007812 C 168.625 203.507812 172.3125 209 172.796875 215.296875 L 178.425781 288.210938 C 178.425781 288.210938 181.566406 290.890625 187.84375 290.808594 L 182.457031 212.292969 C 182.457031 212.292969 182.144531 205.804688 173.265625 200.433594" fill="#fadb67"/></g><g><path d="M 474.421875 95.421875 L 473.050781 94.789062 L 187.871094 196.5 C 185.921875 197.199219 183.890625 197.554688 181.835938 197.554688 C 179.238281 197.554688 176.710938 196.996094 174.324219 195.898438 L 107.320312 165.042969 L 103.066406 166.558594 C 102.65625 166.707031 102.558594 167.042969 102.550781 167.296875 C 102.539062 167.554688 102.609375 167.894531 103.007812 168.078125 L 173.265625 200.433594 C 175.652344 201.53125 178.179688 202.089844 180.777344 202.089844 C 182.832031 202.089844 184.863281 201.734375 186.8125 201.035156 L 474.296875 98.5 C 475.640625 98.023438 475.722656 96.023438 474.421875 95.421875" fill="#ffecc3"/></g><g><path d="M 217.109375 244.605469 C 191.652344 253.675781 195.894531 270.300781 195.894531 270.300781 L 196.726562 288.695312 L 503.0625 179.242188 L 502.808594 178.269531 C 450.480469 153.914062 427.847656 166.007812 427.847656 166.007812 C 427.847656 166.007812 242.570312 235.535156 217.109375 244.605469" fill="#703b00"/></g><g><path d="M 627.140625 227.933594 L 604.859375 155.554688 L 604.804688 155.660156 C 604.675781 155.066406 604.308594 154.523438 603.6875 154.238281 L 530.140625 120.367188 C 525.519531 118.242188 520.328125 118.011719 515.558594 119.71875 L 223.40625 224.476562 C 222.375 224.847656 219.011719 224.65625 218.722656 225.582031 L 194.085938 293.992188 C 194.085938 293.992188 192.136719 297.5625 197.246094 299.882812 L 299.53125 346.152344 L 299.660156 346.253906 L 299.6875 346.273438 C 300.359375 346.785156 303.441406 348.824219 308.945312 348.75 L 308.949219 348.75 C 311.433594 348.71875 314.394531 348.265625 317.871094 347.015625 L 624.167969 237.1875 C 624.167969 237.1875 628.855469 233.167969 627.140625 227.933594" fill="#9b5e02"/></g><g><path d="M 602.21875 153.375 L 308.011719 258.867188 L 316.550781 342.292969 L 622.847656 232.464844 L 602.21875 153.375" fill="#ffd34b"/></g><g><path d="M 292.148438 258.449219 L 222.121094 226.199219 L 198.621094 296.15625 L 298.210938 341.429688 L 292.148438 258.449219" fill="#fab300"/></g><g><path d="M 624.894531 226.972656 C 624.894531 226.972656 605.742188 157.25 604.765625 154.632812 C 603.785156 152.015625 601.335938 149.136719 596.195312 146.78125 L 528.820312 115.644531 C 524.199219 113.515625 519.007812 113.285156 514.238281 114.996094 L 222.085938 219.753906 C 221.054688 220.121094 220.386719 220.929688 220.097656 221.855469 L 219.925781 221.492188 L 195.460938 290.269531 C 195.460938 290.269531 193.511719 293.835938 198.621094 296.15625 L 219.59375 233.71875 C 220.964844 229.644531 225.265625 227.648438 228.984375 229.359375 C 241.703125 235.21875 268.917969 247.75 282.980469 254.226562 C 288.410156 256.726562 292.09375 262.21875 292.582031 268.519531 L 298.210938 341.429688 C 298.210938 341.429688 304.292969 346.6875 316.550781 342.292969 L 309.351562 269.785156 C 308.714844 263.355469 312.34375 257.316406 318.078125 255.261719 L 595.285156 155.863281 C 599.054688 154.511719 603.113281 156.808594 604.179688 160.902344 L 622.847656 232.464844 C 622.847656 232.464844 625.777344 230.375 624.894531 226.972656" fill="#ffecc3"/></g><g><path d="M 222.851562 219.78125 C 222.441406 219.925781 222.34375 220.261719 222.335938 220.515625 C 222.324219 220.773438 222.394531 221.113281 222.789062 221.300781 L 293.046875 253.652344 C 295.433594 254.75 297.964844 255.308594 300.5625 255.308594 C 302.617188 255.308594 304.644531 254.953125 306.597656 254.253906 L 534.550781 171.613281 L 311.722656 187.914062 L 222.851562 219.78125" fill="#fab300"/></g><g><path d="M 523.550781 117.527344 C 521.285156 116.484375 518.886719 115.957031 516.421875 115.957031 C 514.46875 115.957031 512.539062 116.292969 510.6875 116.957031 L 311.722656 187.914062 C 311.722656 187.914062 394.527344 202.222656 552.523438 166.425781 L 580.527344 152.800781 C 586.402344 150.183594 590.140625 148.195312 587.003906 146.75 L 523.550781 117.527344" fill="#ffd34b"/></g><g><path d="M 293.046875 253.652344 L 222.789062 221.300781 C 222.394531 221.113281 222.324219 220.773438 222.335938 220.515625 C 222.34375 220.261719 222.441406 219.925781 222.851562 219.78125 L 240.394531 213.488281 C 240.285156 213.425781 240.179688 213.367188 240.066406 213.304688 L 222.085938 219.753906 C 221.054688 220.121094 220.386719 220.929688 220.097656 221.855469 L 219.925781 221.492188 L 195.460938 290.269531 C 195.460938 290.269531 193.511719 293.835938 198.621094 296.15625 L 219.59375 233.71875 C 220.964844 229.644531 225.265625 227.648438 228.984375 229.359375 C 241.703125 235.21875 268.917969 247.75 282.980469 254.226562 C 288.410156 256.726562 292.09375 262.21875 292.582031 268.519531 L 298.210938 341.429688 C 298.210938 341.429688 301.351562 344.109375 307.628906 344.027344 L 302.242188 265.511719 C 302.242188 265.511719 301.929688 259.023438 293.046875 253.652344" fill="#fadb67"/></g><g><path d="M 594.203125 148.640625 L 592.832031 148.007812 L 307.65625 249.71875 C 305.707031 250.417969 303.675781 250.773438 301.621094 250.773438 C 299.023438 250.773438 296.496094 250.214844 294.109375 249.117188 L 227.105469 218.261719 L 222.851562 219.78125 C 222.441406 219.925781 222.34375 220.261719 222.335938 220.515625 C 222.324219 220.773438 222.394531 221.113281 222.789062 221.300781 L 293.046875 253.652344 C 295.433594 254.75 297.964844 255.308594 300.5625 255.308594 C 302.617188 255.308594 304.644531 254.953125 306.597656 254.253906 L 594.078125 151.722656 C 595.425781 151.242188 595.507812 149.242188 594.203125 148.640625" fill="#ffecc3"/></g><g><path d="M 336.894531 297.824219 C 311.4375 306.894531 315.679688 323.523438 315.679688 323.523438 L 316.511719 341.914062 L 622.847656 232.464844 L 622.59375 231.488281 C 570.261719 207.132812 547.632812 219.226562 547.632812 219.226562 C 547.632812 219.226562 362.351562 288.757812 336.894531 297.824219" fill="#fab300"/></g><g><path d="M 491.484375 123.15625 L 487.820312 111.257812 C 486.597656 106.902344 485.667969 103.648438 485.226562 102.1875 L 514.328125 114.964844 C 514.296875 114.972656 514.269531 114.984375 514.238281 114.996094 L 491.484375 123.15625" fill="#fadac1"/></g><g><path d="M 198.195312 202.074219 C 198.230469 202.0625 198.261719 202.050781 198.292969 202.039062 L 475.5 102.640625 C 475.515625 102.636719 475.53125 102.632812 475.546875 102.625 L 198.195312 202.074219 M 488.691406 124.15625 L 484.390625 107.65625 C 484.390625 107.664062 484.394531 107.675781 484.394531 107.683594 L 488.691406 124.15625 M 491.171875 123.265625 C 489.933594 118.804688 488.785156 114.6875 487.820312 111.257812 L 491.484375 123.15625 L 491.171875 123.265625" fill="#985002"/></g><g><path d="M 227.113281 217.949219 L 194.90625 203.882812 C 195.898438 203.128906 197 202.515625 198.195312 202.074219 L 475.546875 102.625 C 476.265625 102.375 476.992188 102.253906 477.710938 102.253906 C 480.730469 102.253906 483.519531 104.378906 484.390625 107.65625 L 488.691406 124.15625 L 227.113281 217.949219" fill="#9e5900"/></g><g><path d="M 194.90625 203.882812 L 187.679688 200.726562 L 474.296875 98.5 C 474.691406 98.363281 474.976562 98.089844 475.148438 97.765625 L 485.226562 102.1875 C 485.667969 103.648438 486.597656 106.902344 487.820312 111.257812 C 488.785156 114.6875 489.933594 118.804688 491.171875 123.265625 L 488.691406 124.15625 L 484.394531 107.683594 C 484.394531 107.675781 484.390625 107.664062 484.390625 107.65625 C 483.519531 104.378906 480.730469 102.253906 477.710938 102.253906 C 476.992188 102.253906 476.265625 102.375 475.546875 102.625 C 475.53125 102.632812 475.515625 102.636719 475.5 102.640625 L 198.292969 202.039062 C 198.261719 202.050781 198.230469 202.0625 198.195312 202.074219 C 197 202.515625 195.898438 203.128906 194.90625 203.882812 M 464.402344 97.875 C 466.757812 96.6875 468.28125 95.660156 468.351562 94.78125 L 470.472656 95.710938 L 464.402344 97.875" fill="#faca94"/></g><g><path d="M 181.835938 197.554688 C 181.308594 197.554688 180.78125 197.53125 180.257812 197.484375 L 131.925781 176.375 L 130.929688 175.914062 L 238.421875 137.515625 C 239.042969 137.515625 239.671875 137.519531 240.304688 137.519531 C 275.925781 137.519531 330.949219 134.023438 404.445312 119.257812 L 187.871094 196.5 C 185.921875 197.199219 183.890625 197.554688 181.835938 197.554688" fill="#f59900"/></g><g><path d="M 240.304688 137.519531 C 239.671875 137.519531 239.042969 137.515625 238.421875 137.515625 L 412.492188 75.332031 C 414.34375 74.667969 416.273438 74.332031 418.226562 74.332031 C 420.691406 74.332031 423.09375 74.863281 425.355469 75.902344 L 468.351562 94.78125 C 468.28125 95.660156 466.757812 96.6875 464.402344 97.875 L 404.445312 119.257812 C 330.949219 134.023438 275.925781 137.519531 240.304688 137.519531" fill="#fab439"/></g><g><path d="M 187.679688 200.726562 L 180.257812 197.484375 C 180.78125 197.53125 181.308594 197.554688 181.835938 197.554688 C 183.890625 197.554688 185.921875 197.199219 187.871094 196.5 L 404.445312 119.257812 L 464.402344 97.875 L 470.472656 95.710938 L 475.148438 97.765625 C 474.976562 98.089844 474.691406 98.363281 474.296875 98.5 L 187.679688 200.726562 M 131.925781 176.375 L 130.898438 175.925781 L 130.929688 175.914062 L 131.925781 176.375" fill="#faca94"/></g><g><path d="M 227.113281 217.949219 L 488.691406 124.15625 L 491.171875 123.265625 L 491.484375 123.15625 L 514.238281 114.996094 C 514.269531 114.984375 514.296875 114.972656 514.328125 114.964844 L 516.59375 115.957031 C 516.535156 115.957031 516.476562 115.957031 516.421875 115.957031 C 514.46875 115.957031 512.539062 116.292969 510.6875 116.957031 L 311.722656 187.914062 L 240.394531 213.488281 C 240.285156 213.425781 240.175781 213.367188 240.066406 213.304688 L 227.113281 217.949219" fill="#faca94"/></g><g><path d="M 270.1875 235.421875 C 265.03125 235.421875 262.148438 233.507812 261.507812 233.023438 L 261.480469 233.003906 L 261.355469 232.90625 L 227.492188 218.117188 L 240.394531 213.488281 L 311.722656 187.914062 C 311.722656 187.914062 328.066406 190.738281 360.089844 190.738281 C 372.246094 190.738281 386.671875 190.328125 403.316406 189.207031 L 279.109375 233.742188 C 275.742188 234.949219 272.878906 235.390625 270.472656 235.421875 L 270.46875 235.421875 C 270.375 235.421875 270.28125 235.421875 270.1875 235.421875" fill="#f59900"/></g><g><path d="M 360.089844 190.738281 C 328.066406 190.738281 311.722656 187.914062 311.722656 187.914062 L 510.6875 116.957031 C 512.539062 116.292969 514.46875 115.957031 516.421875 115.957031 C 516.476562 115.957031 516.535156 115.957031 516.59375 115.957031 L 557.507812 133.917969 L 403.316406 189.207031 C 386.671875 190.328125 372.246094 190.738281 360.089844 190.738281" fill="#fab439"/></g><g><path d="M 227.492188 218.117188 L 227.113281 217.949219 L 240.066406 213.304688 C 240.175781 213.367188 240.285156 213.425781 240.394531 213.488281 L 227.492188 218.117188" fill="#f5bb4e"/></g><g><path d="M 567.453125 110.34375 L 545.882812 40.273438 L 545.832031 40.375 C 545.707031 39.800781 545.351562 39.277344 544.75 39 L 473.550781 6.210938 C 469.078125 4.148438 464.050781 3.925781 459.433594 5.582031 L 176.613281 106.996094 C 175.613281 107.351562 172.359375 107.164062 172.074219 108.066406 L 148.226562 174.292969 C 148.226562 174.292969 146.339844 177.746094 151.285156 179.992188 L 250.304688 224.785156 L 250.429688 224.882812 L 250.457031 224.902344 C 251.109375 225.394531 254.089844 227.371094 259.421875 227.300781 C 261.824219 227.269531 264.695312 226.828125 268.058594 225.621094 L 564.574219 119.300781 C 564.574219 119.300781 569.113281 115.40625 567.453125 110.34375" fill="#9b5e02"/></g><g><path d="M 543.285156 38.253906 L 258.472656 140.378906 L 266.738281 221.136719 L 563.253906 114.816406 L 543.285156 38.253906" fill="#ffd34b"/></g><g><path d="M 243.117188 139.972656 L 175.324219 108.753906 L 152.574219 176.476562 L 248.984375 220.300781 L 243.117188 139.972656" fill="#fab300"/></g><g><path d="M 565.234375 109.5 C 565.234375 109.5 546.699219 42.003906 545.75 39.46875 C 544.800781 36.9375 542.433594 34.152344 537.453125 31.871094 L 472.230469 1.726562 C 467.757812 -0.332031 462.730469 -0.558594 458.113281 1.097656 L 175.289062 102.511719 C 174.292969 102.867188 173.644531 103.648438 173.363281 104.546875 L 173.199219 104.195312 L 149.515625 170.773438 C 149.515625 170.773438 147.628906 174.230469 152.574219 176.476562 L 172.878906 116.03125 C 174.203125 112.085938 178.367188 110.152344 181.96875 111.8125 C 194.28125 117.484375 220.628906 129.617188 234.238281 135.882812 C 239.496094 138.304688 243.0625 143.621094 243.535156 149.71875 L 248.984375 220.300781 C 248.984375 220.300781 254.871094 225.394531 266.738281 221.136719 L 259.769531 150.945312 C 259.152344 144.722656 262.664062 138.875 268.21875 136.886719 L 536.574219 40.660156 C 540.222656 39.351562 544.152344 41.578125 545.183594 45.539062 L 563.253906 114.816406 C 563.253906 114.816406 566.09375 112.792969 565.234375 109.5" fill="#f6f4df"/></g><g><path d="M 176.03125 102.539062 C 175.632812 102.679688 175.539062 103.003906 175.53125 103.25 C 175.519531 103.496094 175.589844 103.828125 175.972656 104.007812 L 243.988281 135.328125 C 246.296875 136.390625 248.742188 136.933594 251.257812 136.933594 C 253.25 136.933594 255.214844 136.589844 257.101562 135.910156 L 477.777344 55.910156 L 262.0625 71.6875 L 176.03125 102.539062" fill="#fab300"/></g><g><path d="M 467.128906 3.550781 C 464.9375 2.542969 462.613281 2.03125 460.226562 2.03125 C 458.335938 2.03125 456.46875 2.355469 454.675781 3 L 262.0625 71.6875 C 262.0625 71.6875 342.226562 85.539062 495.175781 50.886719 L 522.289062 37.695312 C 527.976562 35.164062 531.59375 33.238281 528.554688 31.839844 L 467.128906 3.550781" fill="#ffd34b"/></g><g><path d="M 243.988281 135.328125 L 175.972656 104.007812 C 175.589844 103.828125 175.519531 103.496094 175.53125 103.25 C 175.539062 103.003906 175.632812 102.679688 176.03125 102.539062 L 193.015625 96.449219 C 192.90625 96.386719 192.804688 96.328125 192.699219 96.269531 L 175.289062 102.511719 C 174.292969 102.867188 173.644531 103.648438 173.363281 104.546875 L 173.199219 104.195312 L 149.515625 170.773438 C 149.515625 170.773438 147.628906 174.230469 152.574219 176.476562 L 172.878906 116.03125 C 174.203125 112.085938 178.367188 110.152344 181.96875 111.8125 C 194.28125 117.484375 220.628906 129.617188 234.238281 135.882812 C 239.496094 138.304688 243.0625 143.621094 243.535156 149.71875 L 248.984375 220.300781 C 248.984375 220.300781 252.023438 222.898438 258.101562 222.816406 L 252.886719 146.808594 C 252.886719 146.808594 252.585938 140.527344 243.988281 135.328125" fill="#ffd34b"/></g><g><path d="M 535.527344 33.671875 L 534.199219 33.058594 L 258.128906 131.523438 C 256.242188 132.199219 254.277344 132.542969 252.285156 132.542969 C 249.769531 132.542969 247.324219 132 245.015625 130.9375 L 180.148438 101.070312 L 176.03125 102.539062 C 175.632812 102.679688 175.539062 103.003906 175.53125 103.25 C 175.519531 103.496094 175.589844 103.828125 175.972656 104.007812 L 243.988281 135.328125 C 246.296875 136.390625 248.742188 136.933594 251.257812 136.933594 C 253.25 136.933594 255.214844 136.589844 257.101562 135.910156 L 535.40625 36.652344 C 536.710938 36.191406 536.789062 34.25 535.527344 33.671875" fill="#ffecc3"/></g><g><path d="M 286.433594 178.089844 C 261.785156 186.871094 265.894531 202.964844 265.894531 202.964844 L 266.699219 220.773438 L 563.253906 114.816406 L 563.007812 113.871094 C 512.351562 90.296875 490.445312 102.003906 490.445312 102.003906 C 490.445312 102.003906 311.078125 169.3125 286.433594 178.089844" fill="#fab300"/></g><g><path d="M 243.191406 147.910156 L 171.9375 185.769531 L 248.5 220.570312 Z M 243.191406 147.910156" fill="#d78f00"/></g><g><path d="M 292.175781 268.820312 L 220.921875 306.679688 L 297.480469 341.480469 Z M 292.175781 268.820312" fill="#d78f00"/></g><g><path d="M 350.695312 402.238281 L 279.441406 440.097656 L 356 474.898438 Z M 350.695312 402.238281" fill="#d78f00"/></g><g><path d="M 227.152344 344.792969 L 155.902344 382.652344 L 232.460938 417.453125 Z M 227.152344 344.792969" fill="#d78f00"/></g><g><path d="M 101.011719 287.8125 L 29.757812 325.671875 L 106.320312 360.472656 Z M 101.011719 287.8125" fill="#d78f00"/></g><g><path d="M 172.535156 215.546875 L 101.28125 253.402344 L 177.84375 288.207031 Z M 172.535156 215.546875" fill="#d78f00"/></g></g></svg>