<?xml version="1.0" encoding="UTF-8" standalone="no"?><svg xmlns="http://www.w3.org/2000/svg" xmlns:xlink="http://www.w3.org/1999/xlink" fill="#ffffff" height="125.9" preserveAspectRatio="xMidYMid meet" version="1" viewBox="0.0 0.0 122.8 125.9" width="122.8" zoomAndPan="magnify"><g id="change1_1"><path d="M42.926,53.961c-0.01,0.009-0.022,0.012-0.032,0.021s-0.012,0.022-0.021,0.032c-2.259,2.273-3.659,5.401-3.659,8.851 c0,3.45,1.399,6.578,3.659,8.851c0.009,0.01,0.012,0.022,0.021,0.032s0.022,0.012,0.032,0.021c2.273,2.259,5.401,3.659,8.852,3.659 s6.579-1.399,8.852-3.659c0.01-0.009,0.022-0.012,0.032-0.021s0.012-0.022,0.021-0.032c2.259-2.273,3.659-5.401,3.659-8.851 c0-3.45-1.399-6.579-3.659-8.851c-0.009-0.01-0.012-0.022-0.021-0.032s-0.022-0.012-0.032-0.021 c-2.273-2.259-5.401-3.659-8.851-3.659S45.199,51.702,42.926,53.961z M50.777,52.353v6.78c-0.33,0.089-0.641,0.22-0.931,0.388 l-4.794-4.794C46.639,53.414,48.615,52.558,50.777,52.353z M43.638,56.141l4.794,4.794c-0.168,0.29-0.299,0.6-0.388,0.931h-6.78 C41.469,59.703,42.325,57.727,43.638,56.141z M41.265,63.866h6.78c0.089,0.33,0.22,0.641,0.387,0.93l-4.794,4.794 C42.325,68.004,41.469,66.028,41.265,63.866z M50.777,73.378c-2.163-0.204-4.139-1.06-5.725-2.373l4.794-4.794 c0.29,0.168,0.6,0.299,0.931,0.388V73.378z M49.898,62.866c0-1.036,0.843-1.879,1.879-1.879s1.879,0.843,1.879,1.879 s-0.843,1.879-1.879,1.879S49.898,63.902,49.898,62.866z M52.777,73.378v-6.78c0.331-0.089,0.641-0.22,0.931-0.388l4.794,4.794 C56.916,72.317,54.94,73.173,52.777,73.378z M59.916,69.59l-4.794-4.794c0.168-0.289,0.299-0.6,0.387-0.93h6.78 C62.085,66.028,61.229,68.004,59.916,69.59z M62.29,61.866h-6.78c-0.089-0.33-0.22-0.641-0.388-0.931l4.794-4.794 C61.229,57.727,62.085,59.703,62.29,61.866z M52.777,52.353c2.163,0.204,4.138,1.06,5.725,2.373l-4.794,4.794 c-0.29-0.168-0.6-0.299-0.931-0.388V52.353z" fill="inherit"/><path d="M51.777,22.672c1.996,0,3.62-1.624,3.62-3.619s-1.624-3.619-3.62-3.619c-1.996,0-3.619,1.624-3.619,3.619 S49.782,22.672,51.777,22.672z M51.777,17.434c0.893,0,1.62,0.727,1.62,1.619s-0.727,1.619-1.62,1.619 c-0.893,0-1.619-0.727-1.619-1.619S50.885,17.434,51.777,17.434z" fill="inherit"/><path d="M20.797,35.503c0.927,0,1.854-0.353,2.559-1.059c1.411-1.411,1.411-3.708,0-5.119c-1.367-1.367-3.751-1.367-5.118,0 c-1.411,1.411-1.411,3.708,0,5.119C18.944,35.15,19.871,35.503,20.797,35.503z M19.652,30.74c0.316-0.315,0.73-0.474,1.145-0.474 s0.829,0.158,1.145,0.474c0.631,0.631,0.631,1.659,0,2.291c-0.632,0.631-1.658,0.631-2.29,0 C19.021,32.399,19.021,31.372,19.652,30.74z" fill="inherit"/><path d="M7.965,59.246c-1.996,0-3.619,1.624-3.619,3.62c0,1.996,1.624,3.619,3.619,3.619c1.996,0,3.62-1.624,3.62-3.619 C11.584,60.87,9.961,59.246,7.965,59.246z M7.965,64.485c-0.893,0-1.619-0.727-1.619-1.619c0-0.893,0.727-1.62,1.619-1.62 c0.893,0,1.62,0.727,1.62,1.62C9.584,63.758,8.858,64.485,7.965,64.485z" fill="inherit"/><path d="M18.238,91.286c-1.411,1.411-1.411,3.708,0,5.119c0.706,0.706,1.632,1.059,2.559,1.059s1.854-0.353,2.559-1.059 c1.411-1.411,1.411-3.708,0-5.119C21.989,89.919,19.605,89.919,18.238,91.286z M21.942,94.991c-0.632,0.631-1.658,0.631-2.29,0 c-0.631-0.631-0.631-1.659,0-2.291c0.316-0.315,0.73-0.474,1.145-0.474s0.829,0.158,1.145,0.474 C22.574,93.332,22.574,94.359,21.942,94.991z" fill="inherit"/><path d="M51.777,103.059c-1.996,0-3.619,1.624-3.619,3.619c0,1.996,1.624,3.62,3.619,3.62c1.996,0,3.62-1.624,3.62-3.62 C55.397,104.682,53.773,103.059,51.777,103.059z M51.777,108.297c-0.893,0-1.619-0.727-1.619-1.62c0-0.893,0.727-1.619,1.619-1.619 c0.893,0,1.62,0.727,1.62,1.619C53.397,107.571,52.67,108.297,51.777,108.297z" fill="inherit"/><path d="M95.59,66.485c1.996,0,3.619-1.624,3.619-3.619c0-1.996-1.624-3.62-3.619-3.62c-1.996,0-3.62,1.624-3.62,3.62 C91.97,64.861,93.594,66.485,95.59,66.485z M95.59,61.246c0.893,0,1.619,0.727,1.619,1.62c0,0.893-0.727,1.619-1.619,1.619 c-0.893,0-1.62-0.727-1.62-1.619C93.97,61.973,94.697,61.246,95.59,61.246z" fill="inherit"/><circle cx="117.069" cy="114.461" fill="inherit" r="1.1"/><circle cx="117.069" cy="119.532" fill="inherit" r="1.1"/><path d="M121.771,17.589c0.552,0,1-0.448,1-1V1c0-0.552-0.448-1-1-1h-20.759c-0.552,0-1,0.448-1,1v15.589c0,0.552,0.448,1,1,1 h5.178v9.168H88.874C79.043,16.654,65.89,11.088,51.777,11.088C23.227,11.088,0,34.315,0,62.866s23.227,51.777,51.777,51.777 c14.031,0,27.129-5.511,36.944-15.514h17.469v9.168h-5.178c-0.552,0-1,0.448-1,1v15.589c0,0.552,0.448,1,1,1h20.759 c0.552,0,1-0.448,1-1v-15.589c0-0.552-0.448-1-1-1h-7.505V17.589H121.771z M108.943,28.757v7.262H90.559 c-1.777,0-3.222,1.445-3.222,3.222v4.061c0,1.318-1.072,2.39-2.39,2.39h-15.84v-6.029h8.623c1.799,0,3.263-1.464,3.263-3.263 v-5.252c0-1.318,1.072-2.39,2.39-2.39H108.943z M112.267,17.589v90.708h-4.076v-9.168h1.753c0.552,0,1-0.448,1-1v-9.262 c0-0.552-0.448-1-1-1h-1.753V38.019h1.753c0.552,0,1-0.448,1-1v-9.262c0-0.552-0.448-1-1-1h-1.753v-9.168H112.267z M109.118,15.589 V7.523h2.22v8.066H109.118z M111.338,110.297v8.066h-2.22v-8.066H111.338z M85.998,78.337c2.208-4.866,3.339-10.06,3.339-15.471 c0-5.358-1.111-10.506-3.278-15.335c1.88-0.496,3.278-2.195,3.278-4.23v-4.061c0-0.674,0.548-1.222,1.222-1.222h4.343 c4.345,7.527,6.653,16.101,6.653,24.847c0,8.807-2.33,17.438-6.732,25.002h-4.263c-0.674,0-1.222-0.548-1.222-1.222v-4.061 C89.337,80.529,87.91,78.811,85.998,78.337z M62.173,37.663c-0.552,0-1,0.448-1,1v8.029c0,0.552,0.448,1,1,1h3.47l-2.966,2.881 c-2.671-2.371-6.111-3.88-9.899-4.11v-9.108c0-0.552-0.448-1-1-1s-1,0.448-1,1v9.108c-3.783,0.229-7.219,1.735-9.889,4.101 l-6.443-6.443c-0.391-0.391-1.023-0.391-1.414,0s-0.391,1.023,0,1.414l6.443,6.443c-2.366,2.67-3.872,6.106-4.101,9.889h-9.108 c-0.552,0-1,0.448-1,1s0.448,1,1,1h9.108c0.229,3.783,1.735,7.219,4.101,9.889l-6.443,6.443c-0.391,0.391-0.391,1.023,0,1.414 c0.195,0.195,0.451,0.293,0.707,0.293s0.512-0.098,0.707-0.293l6.443-6.443c2.67,2.366,6.106,3.872,9.889,4.101v9.107 c0,0.552,0.448,1,1,1s1-0.448,1-1v-9.107c3.783-0.229,7.219-1.735,9.889-4.101l3.027,3.027h-3.52c-0.552,0-1,0.448-1,1v8.029 c0,0.552,0.448,1,1,1h5.882c-4.846,3.129-10.411,4.785-16.278,4.785c-16.621,0-30.144-13.522-30.144-30.143 s13.522-30.144,30.144-30.144c5.874,0,11.627,1.747,16.508,4.94H62.173z M67.107,39.663v6.029h-3.935v-6.029H67.107z M66.231,62.866c0,7.97-6.484,14.454-14.454,14.454s-14.454-6.484-14.454-14.454s6.484-14.454,14.454-14.454 S66.231,54.896,66.231,62.866z M67.107,80.195v6.029h-3.935v-6.029H67.107z M51.777,30.722c-17.724,0-32.144,14.419-32.144,32.144 c0,17.724,14.419,32.143,32.144,32.143c7.237,0,14.048-2.352,19.733-6.785h5.192c-6.625,6.505-15.602,10.201-24.925,10.201 c-19.607,0-35.56-15.952-35.56-35.56c0-19.608,15.952-35.56,35.56-35.56c9.401,0,18.442,3.755,25.082,10.357H71.72 C66.07,33.188,59.004,30.722,51.777,30.722z M64.08,73.754c2.366-2.67,3.872-6.106,4.101-9.889h9.108c0.552,0,1-0.448,1-1 s-0.448-1-1-1h-9.108c-0.229-3.778-1.731-7.21-4.091-9.878l4.424-4.296h9.3c2.681,4.592,4.108,9.822,4.108,15.174 c0,5.415-1.459,10.699-4.2,15.33h-9.2L64.08,73.754z M83.921,62.866c0-5.319-1.321-10.525-3.815-15.174h3.827 c2.251,4.758,3.404,9.858,3.404,15.174c0,5.377-1.178,10.529-3.478,15.33h-3.837C82.57,73.506,83.921,68.246,83.921,62.866z M103.555,62.866c0-8.709-2.188-17.262-6.34-24.847h8.976v49.849h-9.062C101.338,80.244,103.555,71.637,103.555,62.866z M51.777,112.643C24.33,112.643,2,90.313,2,62.866s22.33-49.777,49.777-49.777c12.906,0,24.979,4.838,34.261,13.669h-2.655 c-2.421,0-4.39,1.969-4.39,4.39v5.252c0,0.176-0.037,0.342-0.102,0.494c-7.066-7.37-16.885-11.588-27.115-11.588 c-20.71,0-37.56,16.85-37.56,37.56s16.849,37.56,37.56,37.56c10.197,0,19.993-4.194,27.053-11.524 c0.095,0.177,0.163,0.371,0.163,0.586v5.252c0,2.421,1.969,4.39,4.39,4.39h2.491C76.613,107.861,64.598,112.643,51.777,112.643z M88.374,97.129c-0.042-0.002-0.081-0.003-0.123,0h-4.867c-1.318,0-2.39-1.072-2.39-2.39v-5.252c0-1.799-1.464-3.263-3.263-3.263 h-8.623v-6.029h9.189c0.001,0,0.002,0,0.004,0c0.001,0,0.003,0,0.004,0h6.187c0.001,0,0.003,0,0.004,0c0.001,0,0.002,0,0.004,0 h0.449c1.318,0,2.39,1.072,2.39,2.39v4.061c0,1.776,1.445,3.222,3.222,3.222h18.384v7.262H88.374z M120.771,110.297v13.589h-18.759 v-13.589h5.106v9.066c0,0.552,0.448,1,1,1h4.22c0.552,0,1-0.448,1-1v-9.066H120.771z M113.338,15.589V6.523c0-0.552-0.448-1-1-1 h-4.22c-0.552,0-1,0.448-1,1v9.066h-5.106V2h18.759v13.589H113.338z" fill="inherit"/><circle cx="117.069" cy="11.425" fill="inherit" r="1.1"/><path d="M117.069,5.255c-0.607,0-1.1,0.492-1.1,1.1c0,0.607,0.492,1.1,1.1,1.1c0.607,0,1.1-0.492,1.1-1.1 C118.168,5.747,117.676,5.255,117.069,5.255z" fill="inherit"/></g></svg>